<?xml version="1.0" encoding="utf-8"?>
<!-- Generator: Adobe Illustrator 26.4.1, SVG Export Plug-In . SVG Version: 6.00 Build 0)  -->
<svg version="1.1" id="Layer_1" xmlns="http://www.w3.org/2000/svg" xmlns:xlink="http://www.w3.org/1999/xlink" x="0px" y="0px"
	 viewBox="0 0 142.1 123.8" style="enable-background:new 0 0 142.1 123.8;" xml:space="preserve">
<style type="text/css">
	.st0{fill:#1B2B57;}
</style>
<path class="st0" d="M128.3,99.8c-2.2,0-4.1,1.1-5.2,2.8H15.2V77l32.7-33.2h40.9l-6.5,6.3l-31.7,0.2L21.2,79.7v17.1h111V79.2H46.5
	l11.4-12h31.6l26.7-26.5V26H18.4v-5.4h104.4V44l-21.2,20.7c-0.6-0.2-1.3-0.4-2-0.4c-3.4,0-6.2,2.8-6.2,6.2c0,3.4,2.8,6.2,6.2,6.2
	c3.4,0,6.2-2.8,6.2-6.2c0-0.4,0-0.8-0.1-1.2l22.2-23.5l0.2-30.9H12.4v17.2h98.1v6.8L87.4,61.8l-31.7-0.2L32.9,85.2h93.9v6H26.8v-9.6
	l26.4-25.9L85,55.4l16.3-16.9L46,38.8L9.6,74.6L9.4,109H123c1.1,1.8,3,3,5.3,3c3.4,0,6.2-2.8,6.2-6.2S131.7,99.8,128.3,99.8z"/>
</svg>
