<?xml version="1.0" encoding="utf-8"?>
<!-- Generator: Adobe Illustrator 26.4.1, SVG Export Plug-In . SVG Version: 6.00 Build 0)  -->
<svg version="1.1" id="Layer_1" xmlns="http://www.w3.org/2000/svg" xmlns:xlink="http://www.w3.org/1999/xlink" x="0px" y="0px"
	 viewBox="0 0 186.3 173.1" style="enable-background:new 0 0 186.3 173.1;" xml:space="preserve">
<style type="text/css">
	.st0{fill:#1B2B57;}
</style>
<path class="st0" d="M151,99.8c-2.2,0-4.1,1.1-5.2,2.8H38V77l32.7-33.2h40.9l-6.5,6.3l-31.7,0.2L44,79.7v17.1h111V79.2H69.2l11.4-12
	h31.6l26.7-26.5V26H41.1v-5.4h104.4V44l-21.2,20.7c-0.6-0.2-1.3-0.4-2-0.4c-3.4,0-6.2,2.8-6.2,6.2c0,3.4,2.8,6.2,6.2,6.2
	c3.4,0,6.2-2.8,6.2-6.2c0-0.4,0-0.8-0.1-1.2l22.2-23.5l0.2-30.9H35.1v17.2h98.1v6.8l-23.1,22.9l-31.7-0.2L55.7,85.2h93.9v6H49.5
	v-9.6l26.4-25.9l31.9-0.3L124,38.5l-55.3,0.3L32.3,74.6L32.1,109h113.6c1.1,1.8,3,3,5.3,3c3.4,0,6.2-2.8,6.2-6.2
	S154.4,99.8,151,99.8z"/>
<g>
	<path class="st0" d="M9.9,156.2V153l11-13.1l0.9,1.8H10.2v-4.2h16.1v3.3l-11,13.1l-1-1.8h12.3v4.2H9.9z"/>
	<path class="st0" d="M30.1,156.2v-25.8h5.4v25.8H30.1z"/>
	<path class="st0" d="M43.2,134.9c-1,0-1.8-0.3-2.4-0.9c-0.6-0.6-0.9-1.3-0.9-2.2c0-0.9,0.3-1.6,0.9-2.2c0.6-0.6,1.4-0.9,2.4-0.9
		c1,0,1.8,0.3,2.4,0.8c0.6,0.5,0.9,1.2,0.9,2.1c0,0.9-0.3,1.6-0.9,2.2C45,134.6,44.2,134.9,43.2,134.9z M40.5,156.2v-18.7h5.4v18.7
		H40.5z"/>
	<path class="st0" d="M51,163v-25.4h5.2v3.8l-0.1,5.6l0.3,5.5V163H51z M62,156.5c-1.6,0-3-0.3-4.1-1s-2.1-1.8-2.8-3.2
		c-0.7-1.4-1-3.2-1-5.4c0-2.2,0.3-4,0.9-5.4c0.6-1.4,1.5-2.5,2.7-3.2c1.2-0.7,2.6-1,4.2-1c1.8,0,3.3,0.4,4.7,1.2
		c1.4,0.8,2.5,1.9,3.3,3.3c0.8,1.4,1.2,3.1,1.2,5.1c0,2-0.4,3.7-1.2,5.1c-0.8,1.4-1.9,2.5-3.3,3.3C65.3,156.1,63.7,156.5,62,156.5z
		 M61.1,152.1c0.9,0,1.7-0.2,2.4-0.6c0.7-0.4,1.3-1,1.7-1.8c0.4-0.8,0.6-1.7,0.6-2.8c0-1.1-0.2-2-0.6-2.8c-0.4-0.8-1-1.4-1.7-1.8
		c-0.7-0.4-1.5-0.6-2.4-0.6c-0.9,0-1.7,0.2-2.4,0.6c-0.7,0.4-1.3,1-1.7,1.8c-0.4,0.8-0.6,1.7-0.6,2.8c0,1.1,0.2,2,0.6,2.8
		c0.4,0.8,1,1.4,1.7,1.8C59.3,151.8,60.1,152.1,61.1,152.1z"/>
	<path class="st0" d="M74.9,156.2v-18.7h5.2v5.1l-1-1.5c0.6-1.3,1.6-2.2,2.8-2.9c1.2-0.7,2.6-1,4.1-1c1.7,0,3.2,0.4,4.5,1.3
		c1.3,0.9,2.1,2.2,2.6,4l-1.9-0.5c0.6-1.5,1.6-2.6,3-3.5c1.4-0.9,3-1.3,4.7-1.3c1.5,0,2.8,0.3,3.9,0.9c1.1,0.6,2,1.5,2.7,2.7
		c0.7,1.2,1,2.8,1,4.7v10.7H101v-9.9c0-1.5-0.3-2.6-0.9-3.3c-0.6-0.7-1.5-1.1-2.6-1.1c-0.8,0-1.5,0.2-2.1,0.5
		c-0.6,0.4-1.1,0.9-1.5,1.6c-0.3,0.7-0.5,1.6-0.5,2.7v9.4H88v-9.9c0-1.5-0.3-2.6-0.9-3.3c-0.6-0.7-1.5-1.1-2.6-1.1
		c-0.8,0-1.5,0.2-2.1,0.5c-0.6,0.4-1.1,0.9-1.5,1.6c-0.3,0.7-0.5,1.6-0.5,2.7v9.4H74.9z"/>
	<path class="st0" d="M120.7,156.5c-2.1,0-4-0.4-5.6-1.2c-1.6-0.8-2.9-2-3.7-3.4c-0.9-1.4-1.3-3.1-1.3-4.9c0-1.9,0.4-3.5,1.3-5
		c0.9-1.4,2.1-2.6,3.6-3.4c1.5-0.8,3.2-1.2,5.1-1.2c1.8,0,3.5,0.4,4.9,1.2c1.5,0.8,2.6,1.9,3.5,3.3c0.9,1.4,1.3,3.2,1.3,5.2
		c0,0.2,0,0.4,0,0.7s0,0.5-0.1,0.7h-15.2v-3.2h12.3l-2.1,0.9c0-1-0.2-1.8-0.6-2.5c-0.4-0.7-0.9-1.3-1.6-1.7
		c-0.7-0.4-1.5-0.6-2.4-0.6c-0.9,0-1.7,0.2-2.4,0.6c-0.7,0.4-1.3,1-1.6,1.7c-0.4,0.7-0.6,1.6-0.6,2.6v0.8c0,1,0.2,1.9,0.7,2.7
		c0.5,0.8,1.1,1.4,1.9,1.8c0.8,0.4,1.8,0.6,2.9,0.6c1,0,1.9-0.2,2.6-0.5c0.8-0.3,1.4-0.8,2.1-1.4l2.9,3.1c-0.9,1-1.9,1.7-3.2,2.2
		C123.9,156.2,122.4,156.5,120.7,156.5z"/>
	<path class="st0" d="M133.4,156.2v-18.7h5.2v5.2l-1-1.6c0.7-1.2,1.6-2.2,2.9-2.9c1.2-0.7,2.7-1,4.3-1c1.5,0,2.8,0.3,4,0.9
		c1.2,0.6,2.1,1.5,2.8,2.7c0.7,1.2,1,2.8,1,4.7v10.7H147v-9.9c0-1.5-0.3-2.6-1-3.3c-0.7-0.7-1.6-1.1-2.8-1.1c-0.9,0-1.6,0.2-2.3,0.5
		c-0.7,0.4-1.2,0.9-1.6,1.6s-0.6,1.7-0.6,2.8v9.2H133.4z"/>
	<path class="st0" d="M165.2,156.5c-1.6,0-2.9-0.3-4.1-0.9c-1.2-0.6-2.2-1.5-2.8-2.8c-0.7-1.2-1-2.8-1-4.7v-10.6h5.4v9.8
		c0,1.6,0.3,2.7,1,3.4s1.6,1.1,2.8,1.1c0.8,0,1.6-0.2,2.2-0.5c0.6-0.4,1.2-0.9,1.5-1.7c0.4-0.8,0.6-1.7,0.6-2.8v-9.2h5.4v18.7H171
		v-5.1l0.9,1.5c-0.6,1.3-1.5,2.3-2.8,2.9C168,156.2,166.6,156.5,165.2,156.5z"/>
</g>
</svg>
