<?xml version="1.0" encoding="utf-8"?>
<!-- Generator: Adobe Illustrator 26.4.1, SVG Export Plug-In . SVG Version: 6.00 Build 0)  -->
<svg version="1.1" id="Layer_1" xmlns="http://www.w3.org/2000/svg" xmlns:xlink="http://www.w3.org/1999/xlink" x="0px" y="0px"
	 viewBox="0 0 186.3 51.8" style="enable-background:new 0 0 186.3 51.8;" xml:space="preserve">
<style type="text/css">
	.st0{fill:#1B2B57;}
</style>
<g>
	<path class="st0" d="M9.9,35v-3.3l11-13.1l0.9,1.8H10.2v-4.2h16.1v3.3l-11,13.1l-1-1.8h12.3V35H9.9z"/>
	<path class="st0" d="M30.1,35V9.2h5.4V35H30.1z"/>
	<path class="st0" d="M43.2,13.7c-1,0-1.8-0.3-2.4-0.9c-0.6-0.6-0.9-1.3-0.9-2.2s0.3-1.6,0.9-2.2c0.6-0.6,1.4-0.9,2.4-0.9
		c1,0,1.8,0.3,2.4,0.8c0.6,0.5,0.9,1.2,0.9,2.1c0,0.9-0.3,1.6-0.9,2.2C45,13.4,44.2,13.7,43.2,13.7z M40.5,35V16.3h5.4V35H40.5z"/>
	<path class="st0" d="M51,41.7V16.3h5.2v3.8L56,25.7l0.3,5.5v10.5H51z M62,35.2c-1.6,0-3-0.3-4.1-1c-1.2-0.7-2.1-1.8-2.8-3.2
		c-0.7-1.4-1-3.2-1-5.4c0-2.2,0.3-4,0.9-5.4c0.6-1.4,1.5-2.5,2.7-3.2c1.2-0.7,2.6-1,4.2-1c1.8,0,3.3,0.4,4.7,1.2
		c1.4,0.8,2.5,1.9,3.3,3.3c0.8,1.4,1.2,3.1,1.2,5.1c0,2-0.4,3.7-1.2,5.1c-0.8,1.4-1.9,2.5-3.3,3.3C65.3,34.8,63.7,35.2,62,35.2z
		 M61.1,30.8c0.9,0,1.7-0.2,2.4-0.6c0.7-0.4,1.3-1,1.7-1.8c0.4-0.8,0.6-1.7,0.6-2.8c0-1.1-0.2-2-0.6-2.8c-0.4-0.8-1-1.4-1.7-1.8
		c-0.7-0.4-1.5-0.6-2.4-0.6s-1.7,0.2-2.4,0.6c-0.7,0.4-1.3,1-1.7,1.8c-0.4,0.8-0.6,1.7-0.6,2.8c0,1.1,0.2,2,0.6,2.8
		c0.4,0.8,1,1.4,1.7,1.8C59.3,30.6,60.1,30.8,61.1,30.8z"/>
	<path class="st0" d="M74.9,35V16.3h5.2v5.1l-1-1.5c0.6-1.3,1.6-2.2,2.8-2.9c1.2-0.7,2.6-1,4.1-1c1.7,0,3.2,0.4,4.5,1.3
		s2.1,2.2,2.6,4l-1.9-0.5c0.6-1.5,1.6-2.6,3-3.5c1.4-0.9,3-1.3,4.7-1.3c1.5,0,2.8,0.3,3.9,0.9c1.1,0.6,2,1.5,2.7,2.7
		c0.7,1.2,1,2.8,1,4.7V35H101v-9.9c0-1.5-0.3-2.6-0.9-3.3c-0.6-0.7-1.5-1.1-2.6-1.1c-0.8,0-1.5,0.2-2.1,0.5
		c-0.6,0.4-1.1,0.9-1.5,1.6c-0.3,0.7-0.5,1.6-0.5,2.7V35H88v-9.9c0-1.5-0.3-2.6-0.9-3.3c-0.6-0.7-1.5-1.1-2.6-1.1
		c-0.8,0-1.5,0.2-2.1,0.5c-0.6,0.4-1.1,0.9-1.5,1.6c-0.3,0.7-0.5,1.6-0.5,2.7V35H74.9z"/>
	<path class="st0" d="M120.7,35.2c-2.1,0-4-0.4-5.6-1.2c-1.6-0.8-2.9-2-3.7-3.4c-0.9-1.4-1.3-3.1-1.3-4.9c0-1.9,0.4-3.5,1.3-5
		c0.9-1.4,2.1-2.6,3.6-3.4s3.2-1.2,5.1-1.2c1.8,0,3.5,0.4,4.9,1.2c1.5,0.8,2.6,1.9,3.5,3.3c0.9,1.4,1.3,3.2,1.3,5.2
		c0,0.2,0,0.4,0,0.7c0,0.3,0,0.5-0.1,0.7h-15.2V24h12.3l-2.1,0.9c0-1-0.2-1.8-0.6-2.5c-0.4-0.7-0.9-1.3-1.6-1.7
		c-0.7-0.4-1.5-0.6-2.4-0.6c-0.9,0-1.7,0.2-2.4,0.6c-0.7,0.4-1.3,1-1.6,1.7c-0.4,0.7-0.6,1.6-0.6,2.6v0.8c0,1,0.2,1.9,0.7,2.7
		c0.5,0.8,1.1,1.4,1.9,1.8c0.8,0.4,1.8,0.6,2.9,0.6c1,0,1.9-0.2,2.6-0.5s1.4-0.8,2.1-1.4l2.9,3.1c-0.9,1-1.9,1.7-3.2,2.2
		S122.4,35.2,120.7,35.2z"/>
	<path class="st0" d="M133.4,35V16.3h5.2v5.2l-1-1.6c0.7-1.2,1.6-2.2,2.9-2.9c1.2-0.7,2.7-1,4.3-1c1.5,0,2.8,0.3,4,0.9
		c1.2,0.6,2.1,1.5,2.8,2.7c0.7,1.2,1,2.8,1,4.7V35H147v-9.9c0-1.5-0.3-2.6-1-3.3c-0.7-0.7-1.6-1.1-2.8-1.1c-0.9,0-1.6,0.2-2.3,0.5
		c-0.7,0.4-1.2,0.9-1.6,1.6c-0.4,0.7-0.6,1.7-0.6,2.8V35H133.4z"/>
	<path class="st0" d="M165.2,35.2c-1.6,0-2.9-0.3-4.1-0.9c-1.2-0.6-2.2-1.5-2.8-2.8c-0.7-1.2-1-2.8-1-4.7V16.3h5.4V26
		c0,1.6,0.3,2.7,1,3.4c0.7,0.7,1.6,1.1,2.8,1.1c0.8,0,1.6-0.2,2.2-0.5c0.6-0.4,1.2-0.9,1.5-1.7c0.4-0.8,0.6-1.7,0.6-2.8v-9.2h5.4V35
		H171v-5.1l0.9,1.5c-0.6,1.3-1.5,2.3-2.8,2.9C168,34.9,166.6,35.2,165.2,35.2z"/>
</g>
</svg>
